STARTFONT 2.1
FONT -Linotype-Helvetica-Medium-O-Normal-Sans-14-140-72-72-P-76-ISO8859-1
SIZE 14 72 72
FONTBOUNDINGBOX 21 19 -5 -4

STARTPROPERTIES 22
FONTNAME_REGISTRY "-"
FOUNDRY "Linotype"
FAMILY_NAME "Helvetica"
WEIGHT_NAME "Medium"
SLANT "O"
SETWIDTH_NAME "Normal"
ADD_STYLE_NAME "Sans"
PIXEL_SIZE 14
POINT_SIZE 140
RESOLUTION_X 72
RESOLUTION_Y 72
SPACING "P"
CHARSET_REGISTRY "ISO8859"
CHARSET_ENCODING "1"
FULL_NAME "Helvetica-Oblique"
AVERAGE_WIDTH 76
WEIGHT 10
X_HEIGHT 8
QUAD_WIDTH 8
DEFAULT_CHAR 32
FONT_DESCENT 3
FONT_ASCENT 13
ENDPROPERTIES

CHARS 190

STARTCHAR space
ENCODING 32
SWIDTH 278 0
DWIDTH 4 0
BBX 1 1 0 0
BITMAP
00
ENDCHAR

STARTCHAR exclam
ENCODING 33
SWIDTH 278 0
DWIDTH 4 0
BBX 3 11 2 0
BITMAP
20
20
20
40
40
40
40
80
80
00
80
ENDCHAR

STARTCHAR quotedbl
ENCODING 34
SWIDTH 355 0
DWIDTH 5 0
BBX 4 3 2 8
BITMAP
F0
A0
A0
ENDCHAR

STARTCHAR numbersign
ENCODING 35
SWIDTH 556 0
DWIDTH 8 0
BBX 8 11 1 0
BITMAP
09
09
12
7F
12
24
24
FE
48
48
D8
ENDCHAR

STARTCHAR dollar
ENCODING 36
SWIDTH 556 0
DWIDTH 8 0
BBX 8 13 1 -1
BITMAP
04
1E
29
49
28
18
18
14
12
92
94
78
20
ENDCHAR

STARTCHAR percent
ENCODING 37
SWIDTH 889 0
DWIDTH 12 0
BBX 11 11 2 0
BITMAP
70C0
8880
8900
8A00
7600
0400
09C0
1A20
1220
2220
41C0
ENDCHAR

STARTCHAR ampersand
ENCODING 38
SWIDTH 667 0
DWIDTH 9 0
BBX 8 11 1 0
BITMAP
0C
12
22
22
14
28
49
86
82
86
79
ENDCHAR

STARTCHAR quoteright
ENCODING 39
SWIDTH 222 0
DWIDTH 3 0
BBX 2 4 2 7
BITMAP
40
C0
40
80
ENDCHAR

STARTCHAR parenleft
ENCODING 40
SWIDTH 333 0
DWIDTH 5 0
BBX 5 14 2 -3
BITMAP
08
10
20
20
40
40
80
80
80
80
80
80
80
40
ENDCHAR

STARTCHAR parenright
ENCODING 41
SWIDTH 333 0
DWIDTH 5 0
BBX 5 14 0 -3
BITMAP
10
08
08
08
08
08
08
08
10
10
20
20
40
80
ENDCHAR

STARTCHAR asterisk
ENCODING 42
SWIDTH 389 0
DWIDTH 5 0
BBX 4 4 2 7
BITMAP
60
F0
60
90
ENDCHAR

STARTCHAR plus
ENCODING 43
SWIDTH 584 0
DWIDTH 8 0
BBX 7 7 1 0
BITMAP
08
08
10
FE
10
20
20
ENDCHAR

STARTCHAR comma
ENCODING 44
SWIDTH 278 0
DWIDTH 4 0
BBX 2 4 1 -2
BITMAP
40
C0
40
80
ENDCHAR

STARTCHAR minus
ENCODING 45
SWIDTH 584 0
DWIDTH 8 0
BBX 7 1 1 3
BITMAP
FE
ENDCHAR

STARTCHAR period
ENCODING 46
SWIDTH 278 0
DWIDTH 4 0
BBX 2 1 1 0
BITMAP
C0
ENDCHAR

STARTCHAR slash
ENCODING 47
SWIDTH 278 0
DWIDTH 4 0
BBX 6 11 0 0
BITMAP
04
04
08
08
10
10
20
20
40
40
80
ENDCHAR

STARTCHAR zero
ENCODING 48
SWIDTH 556 0
DWIDTH 8 0
BBX 7 11 1 0
BITMAP
1C
22
42
42
82
82
82
84
84
88
70
ENDCHAR

STARTCHAR one
ENCODING 49
SWIDTH 556 0
DWIDTH 8 0
BBX 4 11 3 0
BITMAP
10
30
E0
20
20
20
20
40
40
40
40
ENDCHAR

STARTCHAR two
ENCODING 50
SWIDTH 556 0
DWIDTH 8 0
BBX 8 11 0 0
BITMAP
1E
21
21
01
02
04
08
30
40
80
FE
ENDCHAR

STARTCHAR three
ENCODING 51
SWIDTH 556 0
DWIDTH 8 0
BBX 7 11 1 0
BITMAP
1C
22
42
02
04
1C
04
04
84
48
30
ENDCHAR

STARTCHAR four
ENCODING 52
SWIDTH 556 0
DWIDTH 8 0
BBX 7 11 1 0
BITMAP
02
04
0C
14
24
24
44
84
FE
08
08
ENDCHAR

STARTCHAR five
ENCODING 53
SWIDTH 556 0
DWIDTH 8 0
BBX 8 11 1 0
BITMAP
1F
20
20
20
7C
42
02
02
82
84
78
ENDCHAR

STARTCHAR six
ENCODING 54
SWIDTH 556 0
DWIDTH 8 0
BBX 7 11 1 0
BITMAP
1E
22
40
40
78
84
84
84
84
88
70
ENDCHAR

STARTCHAR seven
ENCODING 55
SWIDTH 556 0
DWIDTH 8 0
BBX 7 11 2 0
BITMAP
7E
02
04
08
08
10
20
20
40
40
80
ENDCHAR

STARTCHAR eight
ENCODING 56
SWIDTH 556 0
DWIDTH 8 0
BBX 7 11 1 0
BITMAP
1C
22
42
42
3C
44
42
82
82
84
78
ENDCHAR

STARTCHAR nine
ENCODING 57
SWIDTH 556 0
DWIDTH 8 0
BBX 7 11 1 0
BITMAP
1C
22
42
42
42
46
3A
02
84
88
70
ENDCHAR

STARTCHAR colon
ENCODING 58
SWIDTH 278 0
DWIDTH 4 0
BBX 3 8 2 0
BITMAP
60
00
00
00
00
00
00
C0
ENDCHAR

STARTCHAR semicolon
ENCODING 59
SWIDTH 278 0
DWIDTH 4 0
BBX 3 10 1 -2
BITMAP
20
00
00
00
00
00
40
C0
40
80
ENDCHAR

STARTCHAR less
ENCODING 60
SWIDTH 584 0
DWIDTH 8 0
BBX 8 7 1 0
BITMAP
03
0C
30
C0
60
18
06
ENDCHAR

STARTCHAR equal
ENCODING 61
SWIDTH 584 0
DWIDTH 8 0
BBX 7 4 1 1
BITMAP
7E
00
00
FC
ENDCHAR

STARTCHAR greater
ENCODING 62
SWIDTH 584 0
DWIDTH 8 0
BBX 8 7 1 0
BITMAP
60
18
06
03
0C
30
C0
ENDCHAR

STARTCHAR question
ENCODING 63
SWIDTH 556 0
DWIDTH 8 0
BBX 6 11 3 0
BITMAP
38
44
84
04
08
10
20
40
00
00
40
ENDCHAR

STARTCHAR at
ENCODING 64
SWIDTH 1015 0
DWIDTH 14 0
BBX 13 13 1 -2
BITMAP
03E0
0C30
1008
23E8
44C8
4888
8888
8888
8910
8FE0
4000
6000
1F80
ENDCHAR

STARTCHAR A
ENCODING 65
SWIDTH 667 0
DWIDTH 9 0
BBX 9 11 0 0
BITMAP
0300
0500
0500
0900
0900
1100
1100
3F00
2100
4100
8080
ENDCHAR

STARTCHAR B
ENCODING 66
SWIDTH 667 0
DWIDTH 9 0
BBX 9 11 1 0
BITMAP
3F00
2080
2080
2080
4100
7E00
4100
4100
4100
8200
FC00
ENDCHAR

STARTCHAR C
ENCODING 67
SWIDTH 722 0
DWIDTH 10 0
BBX 9 11 2 0
BITMAP
0F00
3080
4080
4000
8000
8000
8000
8080
8100
4200
3C00
ENDCHAR

STARTCHAR D
ENCODING 68
SWIDTH 722 0
DWIDTH 10 0
BBX 9 11 1 0
BITMAP
3F00
2080
2080
2080
4080
4080
4080
4080
8100
8200
FC00
ENDCHAR

STARTCHAR E
ENCODING 69
SWIDTH 667 0
DWIDTH 9 0
BBX 9 11 1 0
BITMAP
3F80
2000
2000
2000
4000
7F00
4000
4000
4000
8000
FF00
ENDCHAR

STARTCHAR F
ENCODING 70
SWIDTH 611 0
DWIDTH 9 0
BBX 9 11 1 0
BITMAP
3F80
2000
2000
2000
4000
7E00
4000
4000
4000
8000
8000
ENDCHAR

STARTCHAR G
ENCODING 71
SWIDTH 778 0
DWIDTH 11 0
BBX 10 11 2 0
BITMAP
0F00
3080
4040
4000
8000
8780
8080
8080
8080
4180
3E80
ENDCHAR

STARTCHAR H
ENCODING 72
SWIDTH 722 0
DWIDTH 10 0
BBX 10 11 1 0
BITMAP
1040
1040
2080
2080
7F80
4100
4100
4100
8200
8200
8200
ENDCHAR

STARTCHAR I
ENCODING 73
SWIDTH 278 0
DWIDTH 4 0
BBX 3 11 1 0
BITMAP
20
20
20
20
40
40
40
40
80
80
80
ENDCHAR

STARTCHAR J
ENCODING 74
SWIDTH 500 0
DWIDTH 7 0
BBX 7 11 1 0
BITMAP
02
02
02
02
02
04
04
04
88
88
70
ENDCHAR

STARTCHAR K
ENCODING 75
SWIDTH 667 0
DWIDTH 9 0
BBX 9 11 1 0
BITMAP
2080
2100
2200
2400
4800
5400
6400
4400
8200
8200
8100
ENDCHAR

STARTCHAR L
ENCODING 76
SWIDTH 556 0
DWIDTH 8 0
BBX 7 11 1 0
BITMAP
20
20
20
20
40
40
40
40
40
80
FE
ENDCHAR

STARTCHAR M
ENCODING 77
SWIDTH 833 0
DWIDTH 12 0
BBX 12 11 1 0
BITMAP
3030
3060
3060
30A0
50A0
5920
4940
4A40
4A40
8C40
8840
ENDCHAR

STARTCHAR N
ENCODING 78
SWIDTH 722 0
DWIDTH 10 0
BBX 10 11 1 0
BITMAP
3040
3040
2880
2880
4880
4480
4480
4500
4500
8300
8300
ENDCHAR

STARTCHAR O
ENCODING 79
SWIDTH 778 0
DWIDTH 11 0
BBX 10 11 1 0
BITMAP
0F00
3080
4040
4040
8040
8040
8040
8080
8080
4300
3C00
ENDCHAR

STARTCHAR P
ENCODING 80
SWIDTH 667 0
DWIDTH 9 0
BBX 9 11 1 0
BITMAP
3F00
2080
2080
2080
4100
7E00
4000
4000
8000
8000
8000
ENDCHAR

STARTCHAR Q
ENCODING 81
SWIDTH 778 0
DWIDTH 11 0
BBX 10 11 1 0
BITMAP
0F00
3080
4040
4040
8040
8040
8040
8080
8480
4300
3C80
ENDCHAR

STARTCHAR R
ENCODING 82
SWIDTH 722 0
DWIDTH 10 0
BBX 9 11 1 0
BITMAP
3F00
2080
2080
2080
4100
7F00
4100
4100
4100
8100
8080
ENDCHAR

STARTCHAR S
ENCODING 83
SWIDTH 667 0
DWIDTH 9 0
BBX 9 11 1 0
BITMAP
1F00
2080
4080
4000
2000
1C00
0200
0100
8100
8200
7C00
ENDCHAR

STARTCHAR T
ENCODING 84
SWIDTH 611 0
DWIDTH 9 0
BBX 8 11 2 0
BITMAP
FF
10
10
10
10
10
20
20
20
20
20
ENDCHAR

STARTCHAR U
ENCODING 85
SWIDTH 722 0
DWIDTH 10 0
BBX 9 11 2 0
BITMAP
2080
2080
2080
2080
4100
4100
4100
4100
8200
8200
7C00
ENDCHAR

STARTCHAR V
ENCODING 86
SWIDTH 667 0
DWIDTH 9 0
BBX 8 11 3 0
BITMAP
81
81
42
42
44
44
48
48
50
50
60
ENDCHAR

STARTCHAR W
ENCODING 87
SWIDTH 944 0
DWIDTH 13 0
BBX 12 11 2 0
BITMAP
8610
8610
8A20
8A20
8A20
5240
5240
5280
5280
6300
4200
ENDCHAR

STARTCHAR X
ENCODING 88
SWIDTH 667 0
DWIDTH 9 0
BBX 11 11 0 0
BITMAP
1020
1040
0880
0900
0600
0400
0A00
1200
2100
4100
8080
ENDCHAR

STARTCHAR Y
ENCODING 89
SWIDTH 667 0
DWIDTH 9 0
BBX 9 11 2 0
BITMAP
8080
8100
4200
4400
2800
2800
1000
1000
1000
2000
2000
ENDCHAR

STARTCHAR Z
ENCODING 90
SWIDTH 611 0
DWIDTH 9 0
BBX 10 11 0 0
BITMAP
3FC0
0080
0100
0200
0400
0800
1000
2000
4000
8000
FF00
ENDCHAR

STARTCHAR bracketleft
ENCODING 91
SWIDTH 278 0
DWIDTH 4 0
BBX 5 14 0 -3
BITMAP
38
20
20
20
40
40
40
40
40
40
80
80
80
E0
ENDCHAR

STARTCHAR backslash
ENCODING 92
SWIDTH 278 0
DWIDTH 4 0
BBX 2 11 2 0
BITMAP
80
80
80
80
80
80
40
40
40
40
40
ENDCHAR

STARTCHAR bracketright
ENCODING 93
SWIDTH 278 0
DWIDTH 4 0
BBX 5 14 0 -3
BITMAP
38
08
08
08
10
10
10
10
10
10
20
20
20
E0
ENDCHAR

STARTCHAR asciicircum
ENCODING 94
SWIDTH 469 0
DWIDTH 7 0
BBX 5 5 2 6
BITMAP
10
30
48
48
88
ENDCHAR

STARTCHAR underscore
ENCODING 95
SWIDTH 556 0
DWIDTH 8 0
BBX 9 1 0 -3
BITMAP
FF80
ENDCHAR

STARTCHAR quoteleft
ENCODING 96
SWIDTH 222 0
DWIDTH 3 0
BBX 2 4 2 7
BITMAP
40
80
C0
80
ENDCHAR

STARTCHAR a
ENCODING 97
SWIDTH 556 0
DWIDTH 8 0
BBX 7 8 1 0
BITMAP
3C
42
02
7E
84
84
8C
72
ENDCHAR

STARTCHAR b
ENCODING 98
SWIDTH 556 0
DWIDTH 8 0
BBX 7 11 1 0
BITMAP
20
20
20
3C
22
42
42
42
42
C4
B8
ENDCHAR

STARTCHAR c
ENCODING 99
SWIDTH 500 0
DWIDTH 7 0
BBX 6 8 1 0
BITMAP
38
44
84
80
80
84
88
70
ENDCHAR

STARTCHAR d
ENCODING 100
SWIDTH 556 0
DWIDTH 8 0
BBX 8 11 1 0
BITMAP
01
01
01
3E
42
42
82
82
84
8C
74
ENDCHAR

STARTCHAR e
ENCODING 101
SWIDTH 556 0
DWIDTH 8 0
BBX 7 8 1 0
BITMAP
3C
42
42
FE
80
80
84
78
ENDCHAR

STARTCHAR f
ENCODING 102
SWIDTH 278 0
DWIDTH 4 0
BBX 5 11 1 0
BITMAP
18
20
20
F0
40
40
40
40
40
80
80
ENDCHAR

STARTCHAR g
ENCODING 103
SWIDTH 556 0
DWIDTH 8 0
BBX 8 11 0 -3
BITMAP
1D
23
42
42
42
42
42
3C
04
88
70
ENDCHAR

STARTCHAR h
ENCODING 104
SWIDTH 556 0
DWIDTH 8 0
BBX 7 11 1 0
BITMAP
20
20
20
3E
42
42
42
42
84
84
84
ENDCHAR

STARTCHAR i
ENCODING 105
SWIDTH 222 0
DWIDTH 3 0
BBX 3 11 1 0
BITMAP
20
00
00
20
20
40
40
40
80
80
80
ENDCHAR

STARTCHAR j
ENCODING 106
SWIDTH 222 0
DWIDTH 3 0
BBX 5 14 0 -3
BITMAP
08
00
00
08
08
08
10
10
10
20
20
20
20
C0
ENDCHAR

STARTCHAR k
ENCODING 107
SWIDTH 500 0
DWIDTH 7 0
BBX 6 11 1 0
BITMAP
20
20
20
44
48
50
70
48
48
84
84
ENDCHAR

STARTCHAR l
ENCODING 108
SWIDTH 222 0
DWIDTH 3 0
BBX 3 11 1 0
BITMAP
20
20
20
40
40
40
40
40
80
80
80
ENDCHAR

STARTCHAR m
ENCODING 109
SWIDTH 833 0
DWIDTH 12 0
BBX 11 8 1 0
BITMAP
39C0
4620
4420
4420
4420
4420
8840
8840
ENDCHAR

STARTCHAR n
ENCODING 110
SWIDTH 556 0
DWIDTH 8 0
BBX 7 8 1 0
BITMAP
3C
42
42
42
42
84
84
84
ENDCHAR

STARTCHAR o
ENCODING 111
SWIDTH 556 0
DWIDTH 8 0
BBX 7 8 1 0
BITMAP
3C
42
42
82
82
84
84
78
ENDCHAR

STARTCHAR p
ENCODING 112
SWIDTH 556 0
DWIDTH 8 0
BBX 8 11 0 -3
BITMAP
2E
31
21
21
21
22
42
7C
40
80
80
ENDCHAR

STARTCHAR q
ENCODING 113
SWIDTH 556 0
DWIDTH 8 0
BBX 7 11 1 -3
BITMAP
3A
44
44
84
84
84
88
78
08
10
10
ENDCHAR

STARTCHAR r
ENCODING 114
SWIDTH 333 0
DWIDTH 5 0
BBX 5 8 1 0
BITMAP
58
60
40
40
40
80
80
80
ENDCHAR

STARTCHAR s
ENCODING 115
SWIDTH 500 0
DWIDTH 7 0
BBX 6 8 1 0
BITMAP
38
44
40
30
18
04
84
78
ENDCHAR

STARTCHAR t
ENCODING 116
SWIDTH 278 0
DWIDTH 4 0
BBX 4 10 1 0
BITMAP
20
20
F0
20
40
40
40
80
80
80
ENDCHAR

STARTCHAR u
ENCODING 117
SWIDTH 556 0
DWIDTH 8 0
BBX 7 8 1 0
BITMAP
42
42
42
42
84
84
8C
74
ENDCHAR

STARTCHAR v
ENCODING 118
SWIDTH 500 0
DWIDTH 7 0
BBX 7 8 2 0
BITMAP
82
84
88
48
50
50
20
20
ENDCHAR

STARTCHAR w
ENCODING 119
SWIDTH 722 0
DWIDTH 10 0
BBX 10 8 2 0
BITMAP
8C40
9480
9480
9500
A500
A600
4600
4400
ENDCHAR

STARTCHAR x
ENCODING 120
SWIDTH 500 0
DWIDTH 7 0
BBX 8 8 0 0
BITMAP
21
22
14
08
10
28
44
84
ENDCHAR

STARTCHAR y
ENCODING 121
SWIDTH 500 0
DWIDTH 7 0
BBX 8 11 0 -3
BITMAP
21
22
22
14
14
18
08
10
10
20
C0
ENDCHAR

STARTCHAR z
ENCODING 122
SWIDTH 500 0
DWIDTH 7 0
BBX 7 8 0 0
BITMAP
3E
02
04
08
10
20
40
FC
ENDCHAR

STARTCHAR braceleft
ENCODING 123
SWIDTH 334 0
DWIDTH 5 0
BBX 5 14 1 -3
BITMAP
18
20
20
20
40
40
C0
80
40
40
40
40
40
20
ENDCHAR

STARTCHAR bar
ENCODING 124
SWIDTH 260 0
DWIDTH 4 0
BBX 4 14 1 -3
BITMAP
10
10
10
20
20
20
40
40
40
40
80
80
80
80
ENDCHAR

STARTCHAR braceright
ENCODING 125
SWIDTH 334 0
DWIDTH 5 0
BBX 5 14 0 -3
BITMAP
20
10
10
10
10
10
08
18
10
10
20
20
20
C0
ENDCHAR

STARTCHAR asciitilde
ENCODING 126
SWIDTH 584 0
DWIDTH 8 0
BBX 6 2 2 4
BITMAP
E4
9C
ENDCHAR

STARTCHAR exclamdown
ENCODING 161
SWIDTH 333 0
DWIDTH 5 0
BBX 3 11 1 -3
BITMAP
20
00
20
20
40
40
40
40
80
80
80
ENDCHAR

STARTCHAR cent
ENCODING 162
SWIDTH 556 0
DWIDTH 8 0
BBX 7 10 1 -1
BITMAP
08
3C
52
52
90
90
90
94
78
20
ENDCHAR

STARTCHAR sterling
ENCODING 163
SWIDTH 556 0
DWIDTH 8 0
BBX 8 11 1 0
BITMAP
0E
31
21
20
20
7C
30
20
60
40
FE
ENDCHAR

STARTCHAR currency
ENCODING 164
SWIDTH 556 0
DWIDTH 8 0
BBX 7 5 2 3
BITMAP
7E
44
44
44
FC
ENDCHAR

STARTCHAR yen
ENCODING 165
SWIDTH 556 0
DWIDTH 8 0
BBX 9 11 1 0
BITMAP
8080
8100
4200
4400
2800
2800
FE00
1000
FC00
2000
2000
ENDCHAR

STARTCHAR brokenbar
ENCODING 166
SWIDTH 260 0
DWIDTH 4 0
BBX 4 14 1 -3
BITMAP
10
10
10
20
20
20
00
00
40
40
80
80
80
80
ENDCHAR

STARTCHAR section
ENCODING 167
SWIDTH 556 0
DWIDTH 8 0
BBX 8 14 1 -3
BITMAP
0E
11
11
30
28
44
42
42
22
14
08
88
88
70
ENDCHAR

STARTCHAR dieresis
ENCODING 168
SWIDTH 333 0
DWIDTH 5 0
BBX 3 1 2 10
BITMAP
A0
ENDCHAR

STARTCHAR copyright
ENCODING 169
SWIDTH 737 0
DWIDTH 10 0
BBX 11 11 1 0
BITMAP
0F80
1040
2620
4920
9020
9020
9120
9240
8C80
4100
3E00
ENDCHAR

STARTCHAR ordfeminine
ENCODING 170
SWIDTH 370 0
DWIDTH 5 0
BBX 5 6 2 5
BITMAP
38
08
78
48
70
F0
ENDCHAR

STARTCHAR guillemotleft
ENCODING 171
SWIDTH 556 0
DWIDTH 8 0
BBX 6 5 2 1
BITMAP
24
48
90
48
24
ENDCHAR

STARTCHAR logicalnot
ENCODING 172
SWIDTH 584 0
DWIDTH 8 0
BBX 7 4 1 1
BITMAP
FE
02
04
04
ENDCHAR

STARTCHAR hyphen
ENCODING 173
SWIDTH 333 0
DWIDTH 5 0
BBX 4 1 1 3
BITMAP
F0
ENDCHAR

STARTCHAR registered
ENCODING 174
SWIDTH 737 0
DWIDTH 10 0
BBX 11 11 1 0
BITMAP
0F80
1040
2F20
5120
9120
9E20
9120
9140
B180
4100
3E00
ENDCHAR

STARTCHAR macron
ENCODING 175
SWIDTH 333 0
DWIDTH 5 0
BBX 4 1 2 10
BITMAP
F0
ENDCHAR

STARTCHAR degree
ENCODING 176
SWIDTH 400 0
DWIDTH 8 0
BBX 5 5 4 5
BITMAP
70
88
88
88
70
ENDCHAR

STARTCHAR plusminus
ENCODING 177
SWIDTH 584 0
DWIDTH 8 0
BBX 8 10 1 0
BITMAP
04
04
08
7F
08
10
10
00
00
FE
ENDCHAR

STARTCHAR twosuperior
ENCODING 178
SWIDTH 333 0
DWIDTH 5 0
BBX 5 6 -4 5
BITMAP
30
48
10
20
40
F0
ENDCHAR

STARTCHAR threesuperior
ENCODING 179
SWIDTH 333 0
DWIDTH 5 0
BBX 4 6 -4 5
BITMAP
60
90
10
30
90
60
ENDCHAR

STARTCHAR acute
ENCODING 180
SWIDTH 333 0
DWIDTH 5 0
BBX 2 2 3 9
BITMAP
40
80
ENDCHAR

STARTCHAR mu
ENCODING 181
SWIDTH 556 0
DWIDTH 8 0
BBX 8 11 0 -3
BITMAP
21
21
21
21
42
42
42
7F
40
80
80
ENDCHAR

STARTCHAR paragraph
ENCODING 182
SWIDTH 537 0
DWIDTH 8 0
BBX 7 13 2 -2
BITMAP
3E
74
F4
F4
F4
F4
68
28
28
28
28
50
50
ENDCHAR

STARTCHAR periodcentered
ENCODING 183
SWIDTH 278 0
DWIDTH 7 0
BBX 2 1 4 4
BITMAP
C0
ENDCHAR

STARTCHAR cedilla
ENCODING 184
SWIDTH 333 0
DWIDTH 5 0
BBX 4 4 0 -3
BITMAP
20
10
10
E0
ENDCHAR

STARTCHAR onesuperior
ENCODING 185
SWIDTH 333 0
DWIDTH 5 0
BBX 2 6 -5 5
BITMAP
40
C0
40
40
40
40
ENDCHAR

STARTCHAR ordmasculine
ENCODING 186
SWIDTH 365 0
DWIDTH 5 0
BBX 5 6 2 5
BITMAP
30
48
48
30
00
F0
ENDCHAR

STARTCHAR guillemotright
ENCODING 187
SWIDTH 556 0
DWIDTH 8 0
BBX 6 5 2 1
BITMAP
90
48
24
48
90
ENDCHAR

STARTCHAR onequarter
ENCODING 188
SWIDTH 834 0
DWIDTH 12 0
BBX 10 11 4 0
BITMAP
4040
C080
4100
4200
4400
4840
10C0
1140
2240
43C0
8080
ENDCHAR

STARTCHAR onehalf
ENCODING 189
SWIDTH 834 0
DWIDTH 12 0
BBX 10 11 4 0
BITMAP
4040
C080
4100
4200
4400
4980
1A40
1080
2100
4200
8780
ENDCHAR

STARTCHAR threequarters
ENCODING 190
SWIDTH 834 0
DWIDTH 12 0
BBX 11 11 5 0
BITMAP
6020
9040
1080
3100
9200
6420
0860
08A0
11A0
21E0
4040
ENDCHAR

STARTCHAR questiondown
ENCODING 191
SWIDTH 611 0
DWIDTH 9 0
BBX 6 11 1 -3
BITMAP
08
00
00
08
10
20
40
80
84
84
78
ENDCHAR

STARTCHAR Agrave
ENCODING 192
SWIDTH 667 0
DWIDTH 9 0
BBX 9 14 0 0
BITMAP
0400
0200
0000
0300
0500
0500
0900
0900
1100
1100
3F00
2100
4100
8080
ENDCHAR

STARTCHAR Aacute
ENCODING 193
SWIDTH 667 0
DWIDTH 9 0
BBX 9 14 0 0
BITMAP
0100
0200
0000
0300
0500
0500
0900
0900
1100
1100
3F00
2100
4100
8080
ENDCHAR

STARTCHAR Acircumflex
ENCODING 194
SWIDTH 667 0
DWIDTH 9 0
BBX 9 14 0 0
BITMAP
0200
0500
0000
0300
0500
0500
0900
0900
1100
1100
3F00
2100
4100
8080
ENDCHAR

STARTCHAR Atilde
ENCODING 195
SWIDTH 667 0
DWIDTH 9 0
BBX 9 14 0 0
BITMAP
0680
0580
0000
0300
0500
0500
0900
0900
1100
1100
3F00
2100
4100
8080
ENDCHAR

STARTCHAR Adieresis
ENCODING 196
SWIDTH 667 0
DWIDTH 9 0
BBX 9 13 0 0
BITMAP
0500
0000
0300
0500
0500
0900
0900
1100
1100
3F00
2100
4100
8080
ENDCHAR

STARTCHAR Aring
ENCODING 197
SWIDTH 667 0
DWIDTH 9 0
BBX 9 15 0 0
BITMAP
0300
0300
0000
0000
0300
0500
0500
0900
0900
1100
1100
3F00
2100
4100
8080
ENDCHAR

STARTCHAR AE
ENCODING 198
SWIDTH 1000 0
DWIDTH 14 0
BBX 15 11 0 0
BITMAP
03FE
0280
0480
0480
0880
18FC
1080
3F00
2100
4100
81F8
ENDCHAR

STARTCHAR Ccedilla
ENCODING 199
SWIDTH 722 0
DWIDTH 10 0
BBX 9 15 2 -4
BITMAP
0F00
3080
4080
4000
8000
8000
8000
8080
8100
4200
3C00
1000
1800
0800
7000
ENDCHAR

STARTCHAR Egrave
ENCODING 200
SWIDTH 667 0
DWIDTH 9 0
BBX 9 14 1 0
BITMAP
0400
0200
0000
3F80
2000
2000
2000
4000
7F00
4000
4000
4000
8000
FF00
ENDCHAR

STARTCHAR Eacute
ENCODING 201
SWIDTH 667 0
DWIDTH 9 0
BBX 9 14 1 0
BITMAP
0200
0400
0000
3F80
2000
2000
2000
4000
7F00
4000
4000
4000
8000
FF00
ENDCHAR

STARTCHAR Ecircumflex
ENCODING 202
SWIDTH 667 0
DWIDTH 9 0
BBX 9 14 1 0
BITMAP
0400
0A00
0000
3F80
2000
2000
2000
4000
7F00
4000
4000
4000
8000
FF00
ENDCHAR

STARTCHAR Edieresis
ENCODING 203
SWIDTH 667 0
DWIDTH 9 0
BBX 9 13 1 0
BITMAP
0500
0000
3F80
2000
2000
2000
4000
7F00
4000
4000
4000
8000
FF00
ENDCHAR

STARTCHAR Igrave
ENCODING 204
SWIDTH 278 0
DWIDTH 4 0
BBX 3 14 1 0
BITMAP
40
20
00
20
20
20
20
40
40
40
40
80
80
80
ENDCHAR

STARTCHAR Iacute
ENCODING 205
SWIDTH 278 0
DWIDTH 4 0
BBX 5 14 1 0
BITMAP
08
10
00
20
20
20
20
40
40
40
40
80
80
80
ENDCHAR

STARTCHAR Icircumflex
ENCODING 206
SWIDTH 278 0
DWIDTH 4 0
BBX 5 14 1 0
BITMAP
10
28
00
20
20
20
20
40
40
40
40
80
80
80
ENDCHAR

STARTCHAR Idieresis
ENCODING 207
SWIDTH 278 0
DWIDTH 4 0
BBX 5 13 1 0
BITMAP
28
00
20
20
20
20
40
40
40
40
80
80
80
ENDCHAR

STARTCHAR Eth
ENCODING 208
SWIDTH 722 0
DWIDTH 10 0
BBX 9 11 1 0
BITMAP
3F00
2080
2080
2080
F880
4080
4080
4100
4100
8200
FC00
ENDCHAR

STARTCHAR Ntilde
ENCODING 209
SWIDTH 722 0
DWIDTH 10 0
BBX 10 14 1 0
BITMAP
0680
0580
0000
3040
3040
2880
2880
4880
4480
4480
4500
4500
8300
8300
ENDCHAR

STARTCHAR Ograve
ENCODING 210
SWIDTH 778 0
DWIDTH 11 0
BBX 10 14 1 0
BITMAP
0400
0200
0000
0F00
3080
4040
4040
8040
8040
8040
8080
8080
4300
3C00
ENDCHAR

STARTCHAR Oacute
ENCODING 211
SWIDTH 778 0
DWIDTH 11 0
BBX 10 14 1 0
BITMAP
0100
0200
0000
0F00
3080
4040
4040
8040
8040
8040
8080
8080
4300
3C00
ENDCHAR

STARTCHAR Ocircumflex
ENCODING 212
SWIDTH 778 0
DWIDTH 11 0
BBX 10 14 1 0
BITMAP
0200
0500
0000
0F00
3080
4040
4040
8040
8040
8040
8080
8080
4300
3C00
ENDCHAR

STARTCHAR Otilde
ENCODING 213
SWIDTH 778 0
DWIDTH 11 0
BBX 10 14 1 0
BITMAP
0680
0580
0000
0F00
3080
4040
4040
8040
8040
8040
8080
8080
4300
3C00
ENDCHAR

STARTCHAR Odieresis
ENCODING 214
SWIDTH 778 0
DWIDTH 11 0
BBX 10 13 1 0
BITMAP
0500
0000
0F00
3080
4040
4040
8040
8040
8040
8080
8080
4300
3C00
ENDCHAR

STARTCHAR multiply
ENCODING 215
SWIDTH 584 0
DWIDTH 8 0
BBX 6 5 2 0
BITMAP
44
28
30
48
84
ENDCHAR

STARTCHAR Oslash
ENCODING 216
SWIDTH 778 0
DWIDTH 11 0
BBX 12 11 2 0
BITMAP
0790
1860
2060
20A0
4120
4220
4420
4840
5040
6180
9E00
ENDCHAR

STARTCHAR Ugrave
ENCODING 217
SWIDTH 722 0
DWIDTH 10 0
BBX 9 14 2 0
BITMAP
0400
0200
0000
2080
2080
2080
2080
4100
4100
4100
4100
8200
8200
7C00
ENDCHAR

STARTCHAR Uacute
ENCODING 218
SWIDTH 722 0
DWIDTH 10 0
BBX 9 14 2 0
BITMAP
0200
0400
0000
2080
2080
2080
2080
4100
4100
4100
4100
8200
8200
7C00
ENDCHAR

STARTCHAR Ucircumflex
ENCODING 219
SWIDTH 722 0
DWIDTH 10 0
BBX 9 14 2 0
BITMAP
0400
0A00
0000
2080
2080
2080
2080
4100
4100
4100
4100
8200
8200
7C00
ENDCHAR

STARTCHAR Udieresis
ENCODING 220
SWIDTH 722 0
DWIDTH 10 0
BBX 9 13 2 0
BITMAP
0500
0000
2080
2080
2080
2080
4100
4100
4100
4100
8200
8200
7C00
ENDCHAR

STARTCHAR Yacute
ENCODING 221
SWIDTH 667 0
DWIDTH 9 0
BBX 9 14 2 0
BITMAP
0400
0800
0000
8080
8100
4200
4400
2800
2800
1000
1000
1000
2000
2000
ENDCHAR

STARTCHAR Thorn
ENCODING 222
SWIDTH 667 0
DWIDTH 9 0
BBX 9 11 1 0
BITMAP
2000
2000
3F00
2080
4080
4100
4100
7E00
8000
8000
8000
ENDCHAR

STARTCHAR germandbls
ENCODING 223
SWIDTH 611 0
DWIDTH 9 0
BBX 7 11 2 0
BITMAP
1C
22
22
24
4C
44
42
42
42
84
B8
ENDCHAR

STARTCHAR agrave
ENCODING 224
SWIDTH 556 0
DWIDTH 8 0
BBX 7 11 1 0
BITMAP
10
08
00
3C
42
02
7E
84
84
8C
72
ENDCHAR

STARTCHAR aacute
ENCODING 225
SWIDTH 556 0
DWIDTH 8 0
BBX 7 11 1 0
BITMAP
02
04
00
3C
42
02
7E
84
84
8C
72
ENDCHAR

STARTCHAR acircumflex
ENCODING 226
SWIDTH 556 0
DWIDTH 8 0
BBX 7 11 1 0
BITMAP
04
0A
00
3C
42
02
7E
84
84
8C
72
ENDCHAR

STARTCHAR atilde
ENCODING 227
SWIDTH 556 0
DWIDTH 8 0
BBX 8 11 1 0
BITMAP
0D
0B
00
3C
42
02
7E
84
84
8C
72
ENDCHAR

STARTCHAR adieresis
ENCODING 228
SWIDTH 556 0
DWIDTH 8 0
BBX 7 10 1 0
BITMAP
0A
00
3C
42
02
7E
84
84
8C
72
ENDCHAR

STARTCHAR aring
ENCODING 229
SWIDTH 556 0
DWIDTH 8 0
BBX 7 11 1 0
BITMAP
0C
0C
00
3C
42
02
7E
84
84
8C
72
ENDCHAR

STARTCHAR ae
ENCODING 230
SWIDTH 889 0
DWIDTH 12 0
BBX 12 8 1 0
BITMAP
3CE0
4310
0210
7FF0
8400
8400
8E20
73C0
ENDCHAR

STARTCHAR ccedilla
ENCODING 231
SWIDTH 500 0
DWIDTH 7 0
BBX 6 12 1 -4
BITMAP
38
44
44
80
80
84
88
70
20
10
10
E0
ENDCHAR

STARTCHAR egrave
ENCODING 232
SWIDTH 556 0
DWIDTH 8 0
BBX 7 11 1 0
BITMAP
10
08
00
3C
42
42
FE
80
80
84
78
ENDCHAR

STARTCHAR eacute
ENCODING 233
SWIDTH 556 0
DWIDTH 8 0
BBX 7 11 1 0
BITMAP
02
04
00
3C
42
42
FE
80
80
84
78
ENDCHAR

STARTCHAR ecircumflex
ENCODING 234
SWIDTH 556 0
DWIDTH 8 0
BBX 7 11 1 0
BITMAP
04
0A
00
3C
42
42
FE
80
80
84
78
ENDCHAR

STARTCHAR edieresis
ENCODING 235
SWIDTH 556 0
DWIDTH 8 0
BBX 7 10 1 0
BITMAP
0A
00
3C
42
42
FE
80
80
84
78
ENDCHAR

STARTCHAR igrave
ENCODING 236
SWIDTH 278 0
DWIDTH 4 0
BBX 3 11 1 0
BITMAP
40
20
00
20
20
40
40
40
80
80
80
ENDCHAR

STARTCHAR iacute
ENCODING 237
SWIDTH 278 0
DWIDTH 4 0
BBX 4 11 1 0
BITMAP
10
20
00
20
20
40
40
40
80
80
80
ENDCHAR

STARTCHAR icircumflex
ENCODING 238
SWIDTH 278 0
DWIDTH 4 0
BBX 4 11 1 0
BITMAP
20
50
00
20
20
40
40
40
80
80
80
ENDCHAR

STARTCHAR idieresis
ENCODING 239
SWIDTH 278 0
DWIDTH 4 0
BBX 5 10 1 0
BITMAP
28
00
20
20
40
40
40
80
80
80
ENDCHAR

STARTCHAR eth
ENCODING 240
SWIDTH 556 0
DWIDTH 8 0
BBX 7 11 1 0
BITMAP
14
08
04
3C
42
42
82
82
84
88
70
ENDCHAR

STARTCHAR ntilde
ENCODING 241
SWIDTH 556 0
DWIDTH 8 0
BBX 8 11 1 0
BITMAP
0D
0B
00
3C
42
42
42
42
84
84
84
ENDCHAR

STARTCHAR ograve
ENCODING 242
SWIDTH 556 0
DWIDTH 8 0
BBX 7 11 1 0
BITMAP
10
08
00
3C
42
42
82
82
84
84
78
ENDCHAR

STARTCHAR oacute
ENCODING 243
SWIDTH 556 0
DWIDTH 8 0
BBX 7 11 1 0
BITMAP
02
04
00
3C
42
42
82
82
84
84
78
ENDCHAR

STARTCHAR ocircumflex
ENCODING 244
SWIDTH 556 0
DWIDTH 8 0
BBX 7 11 1 0
BITMAP
04
0A
00
3C
42
42
82
82
84
84
78
ENDCHAR

STARTCHAR otilde
ENCODING 245
SWIDTH 556 0
DWIDTH 8 0
BBX 7 11 1 0
BITMAP
1A
16
00
3C
42
42
82
82
84
84
78
ENDCHAR

STARTCHAR odieresis
ENCODING 246
SWIDTH 556 0
DWIDTH 8 0
BBX 7 10 1 0
BITMAP
0A
00
3C
42
42
82
82
84
84
78
ENDCHAR

STARTCHAR divide
ENCODING 247
SWIDTH 584 0
DWIDTH 8 0
BBX 7 6 1 0
BITMAP
10
00
FE
00
00
20
ENDCHAR

STARTCHAR oslash
ENCODING 248
SWIDTH 611 0
DWIDTH 8 0
BBX 9 8 2 0
BITMAP
1E80
2300
2500
4900
5100
6200
4200
BC00
ENDCHAR

STARTCHAR ugrave
ENCODING 249
SWIDTH 556 0
DWIDTH 8 0
BBX 7 11 1 0
BITMAP
10
08
00
42
42
42
42
84
84
8C
74
ENDCHAR

STARTCHAR uacute
ENCODING 250
SWIDTH 556 0
DWIDTH 8 0
BBX 7 11 1 0
BITMAP
02
04
00
42
42
42
42
44
84
8C
74
ENDCHAR

STARTCHAR ucircumflex
ENCODING 251
SWIDTH 556 0
DWIDTH 8 0
BBX 7 11 1 0
BITMAP
04
0A
00
42
42
42
42
84
84
8C
74
ENDCHAR

STARTCHAR udieresis
ENCODING 252
SWIDTH 556 0
DWIDTH 8 0
BBX 7 10 1 0
BITMAP
0A
00
42
42
42
42
84
84
8C
74
ENDCHAR

STARTCHAR yacute
ENCODING 253
SWIDTH 500 0
DWIDTH 7 0
BBX 8 14 0 -3
BITMAP
02
04
00
21
22
22
14
14
18
08
10
10
20
C0
ENDCHAR

STARTCHAR thorn
ENCODING 254
SWIDTH 556 0
DWIDTH 6 0
BBX 8 14 0 -3
BITMAP
10
10
10
1E
11
11
21
21
22
42
7C
40
80
80
ENDCHAR

STARTCHAR ydieresis
ENCODING 255
SWIDTH 500 0
DWIDTH 7 0
BBX 8 13 0 -3
BITMAP
0A
00
21
22
22
14
14
18
08
10
10
20
C0
ENDCHAR
ENDFONT
